<svg xmlns="http://www.w3.org/2000/svg">
  <symbol id="book" viewBox="0 0 24 24">
    <path d="M4 19.5A2.5 2.5 0 0 1 6.5 17H20"/>
    <path d="M4 4.5A2.5 2.5 0 0 1 6.5 2H20v20H6.5A2.5 2.5 0 0 1 4 19.5z"/>
  </symbol>
  <symbol id="headset" viewBox="0 0 24 24">
    <path d="M4 14v-2a8 8 0 0 1 16 0v2"/>
    <path d="M18 19c0 1.1-.9 2-2 2h-3"/>
    <path d="M4 14a2 2 0 0 1 2-2h1v6H6a2 2 0 0 1-2-2z"/>
    <path d="M20 14a2 2 0 0 0-2-2h-1v6h1a2 2 0 0 0 2-2z"/>
  </symbol>
  <symbol id="check" viewBox="0 0 24 24">
    <path d="m20 6-11 11-5-5"/>
  </symbol>
  <symbol id="clock" viewBox="0 0 24 24">
    <circle cx="12" cy="12" r="9"/>
    <path d="M12 7v5l3 2"/>
  </symbol>
  <symbol id="shield" viewBox="0 0 24 24">
    <path d="M12 22s8-4 8-10V5l-8-3-8 3v7c0 6 8 10 8 10z"/>
    <path d="m9 12 2 2 4-5"/>
  </symbol>
  <symbol id="layers" viewBox="0 0 24 24">
    <path d="m12 2 9 5-9 5-9-5z"/>
    <path d="m3 12 9 5 9-5"/>
    <path d="m3 17 9 5 9-5"/>
  </symbol>
  <symbol id="monitor" viewBox="0 0 24 24">
    <rect x="3" y="4" width="18" height="12" rx="2"/>
    <path d="M8 20h8"/>
    <path d="M12 16v4"/>
  </symbol>
  <symbol id="database" viewBox="0 0 24 24">
    <ellipse cx="12" cy="5" rx="8" ry="3"/>
    <path d="M4 5v6c0 1.7 3.6 3 8 3s8-1.3 8-3V5"/>
    <path d="M4 11v6c0 1.7 3.6 3 8 3s8-1.3 8-3v-6"/>
  </symbol>
  <symbol id="wifi" viewBox="0 0 24 24">
    <path d="M5 12.5a10 10 0 0 1 14 0"/>
    <path d="M8.5 16a5 5 0 0 1 7 0"/>
    <path d="M12 20h.01"/>
    <path d="M2 8.5a15 15 0 0 1 20 0"/>
  </symbol>
  <symbol id="print" viewBox="0 0 24 24">
    <path d="M7 8V3h10v5"/>
    <path d="M7 17H5a2 2 0 0 1-2-2v-4a2 2 0 0 1 2-2h14a2 2 0 0 1 2 2v4a2 2 0 0 1-2 2h-2"/>
    <path d="M7 14h10v7H7z"/>
  </symbol>
  <symbol id="user" viewBox="0 0 24 24">
    <circle cx="12" cy="8" r="4"/>
    <path d="M4 21a8 8 0 0 1 16 0"/>
  </symbol>
  <symbol id="lock" viewBox="0 0 24 24">
    <rect x="5" y="11" width="14" height="10" rx="2"/>
    <path d="M8 11V7a4 4 0 0 1 8 0v4"/>
  </symbol>
  <symbol id="arrow" viewBox="0 0 24 24">
    <path d="M5 12h14"/>
    <path d="m13 6 6 6-6 6"/>
  </symbol>
  <symbol id="up" viewBox="0 0 24 24">
    <path d="m18 15-6-6-6 6"/>
  </symbol>
  <symbol id="folder" viewBox="0 0 24 24">
    <path d="M3 6h7l2 2h9v10a2 2 0 0 1-2 2H5a2 2 0 0 1-2-2z"/>
  </symbol>
  <symbol id="phone" viewBox="0 0 24 24">
    <path d="M22 16.9v3a2 2 0 0 1-2.2 2 19.8 19.8 0 0 1-8.6-3.1 19.4 19.4 0 0 1-6-6A19.8 19.8 0 0 1 2.1 4.2 2 2 0 0 1 4.1 2h3a2 2 0 0 1 2 1.7c.1 1 .4 2 .7 2.9a2 2 0 0 1-.5 2.1L8.1 9.9a16 16 0 0 0 6 6l1.2-1.2a2 2 0 0 1 2.1-.5c.9.3 1.9.6 2.9.7A2 2 0 0 1 22 16.9z"/>
  </symbol>
  <symbol id="mail" viewBox="0 0 24 24">
    <rect x="3" y="5" width="18" height="14" rx="2"/>
    <path d="m3 7 9 6 9-6"/>
  </symbol>
  <symbol id="send" viewBox="0 0 24 24">
    <path d="m22 2-7 20-4-9-9-4z"/>
    <path d="M22 2 11 13"/>
  </symbol>
</svg>
