<svg xmlns="http://www.w3.org/2000/svg" viewBox="0 0 64 64">
  <rect width="64" height="64" rx="12" fill="#0f5da8"/>
  <path d="M35.7 10 37 16.1a18 18 0 0 1 4.2 2.4l5.9-2 4.4 7.6-4.7 4.1a17.2 17.2 0 0 1 0 4.8l4.7 4.1-4.4 7.6-5.9-2A18 18 0 0 1 37 45.1L35.7 51h-8.8l-1.3-5.9a18 18 0 0 1-4.2-2.4l-5.9 2-4.4-7.6 4.7-4.1a17.2 17.2 0 0 1 0-4.8l-4.7-4.1 4.4-7.6 5.9 2a18 18 0 0 1 4.2-2.4L26.9 10z" fill="#fff"/>
  <circle cx="31.3" cy="30.5" r="8.2" fill="#0f5da8"/>
  <circle cx="31.3" cy="30.5" r="4.2" fill="#3bd0c7"/>
</svg>
