<svg xmlns="http://www.w3.org/2000/svg" viewBox="0 0 720 520" role="img" aria-labelledby="heroTitle heroDesc">
  <title id="heroTitle">ИТ-инфраструктура предприятия</title>
  <desc id="heroDesc">Серверы, рабочие станции и сетевые соединения в корпоративной инфраструктуре.</desc>
  <defs>
    <linearGradient id="heroBg" x1="72" y1="60" x2="648" y2="480" gradientUnits="userSpaceOnUse">
      <stop stop-color="#f8fbff"/>
      <stop offset="1" stop-color="#dff1f7"/>
    </linearGradient>
    <linearGradient id="server" x1="238" y1="92" x2="482" y2="410" gradientUnits="userSpaceOnUse">
      <stop stop-color="#123e62"/>
      <stop offset="1" stop-color="#0f5da8"/>
    </linearGradient>
    <filter id="softShadow" x="-20%" y="-20%" width="140%" height="150%">
      <feDropShadow dx="0" dy="24" stdDeviation="18" flood-color="#162236" flood-opacity=".16"/>
    </filter>
  </defs>

  <rect x="28" y="32" width="664" height="456" rx="18" fill="url(#heroBg)"/>
  <path d="M92 108h536M92 172h536M92 236h536M92 300h536M92 364h536M92 428h536M132 72v392M220 72v392M308 72v392M396 72v392M484 72v392M572 72v392" stroke="#0f5da8" stroke-opacity=".08" stroke-width="2"/>

  <g filter="url(#softShadow)">
    <rect x="238" y="84" width="244" height="330" rx="18" fill="url(#server)"/>
    <rect x="264" y="120" width="192" height="56" rx="8" fill="#fff" fill-opacity=".12"/>
    <rect x="282" y="140" width="86" height="8" rx="4" fill="#fff" fill-opacity=".75"/>
    <circle cx="426" cy="148" r="9" fill="#3bd0c7"/>
    <rect x="264" y="200" width="192" height="56" rx="8" fill="#fff" fill-opacity=".12"/>
    <rect x="282" y="220" width="98" height="8" rx="4" fill="#fff" fill-opacity=".75"/>
    <circle cx="426" cy="228" r="9" fill="#3bd0c7"/>
    <rect x="264" y="280" width="192" height="56" rx="8" fill="#fff" fill-opacity=".12"/>
    <rect x="282" y="300" width="76" height="8" rx="4" fill="#fff" fill-opacity=".75"/>
    <circle cx="426" cy="308" r="9" fill="#c58b2b"/>
  </g>

  <g fill="none" stroke="#168c8b" stroke-width="4" stroke-linecap="round" stroke-linejoin="round">
    <path d="M238 190H134v72"/>
    <path d="M482 190h104v72"/>
    <path d="M238 312H134v74"/>
    <path d="M482 312h104v74"/>
  </g>

  <g filter="url(#softShadow)">
    <rect x="76" y="254" width="116" height="84" rx="12" fill="#fff"/>
    <rect x="94" y="272" width="80" height="42" rx="6" fill="#eaf4ff"/>
    <path d="M118 326h32M134 314v12" stroke="#0f5da8" stroke-width="5" stroke-linecap="round"/>

    <rect x="528" y="254" width="116" height="84" rx="12" fill="#fff"/>
    <rect x="546" y="272" width="80" height="42" rx="6" fill="#eaf4ff"/>
    <path d="M570 326h32M586 314v12" stroke="#0f5da8" stroke-width="5" stroke-linecap="round"/>

    <rect x="74" y="374" width="120" height="64" rx="12" fill="#fff"/>
    <path d="M100 406h68M112 390h44" stroke="#0f5da8" stroke-width="6" stroke-linecap="round"/>
    <circle cx="172" cy="406" r="7" fill="#168c8b"/>

    <rect x="526" y="374" width="120" height="64" rx="12" fill="#fff"/>
    <path d="M552 406h68M564 390h44" stroke="#0f5da8" stroke-width="6" stroke-linecap="round"/>
    <circle cx="624" cy="406" r="7" fill="#168c8b"/>
  </g>

  <circle cx="134" cy="262" r="8" fill="#168c8b"/>
  <circle cx="586" cy="262" r="8" fill="#168c8b"/>
  <circle cx="134" cy="386" r="8" fill="#168c8b"/>
  <circle cx="586" cy="386" r="8" fill="#168c8b"/>
</svg>
