<svg xmlns="http://www.w3.org/2000/svg" viewBox="0 0 520 360" role="img" aria-labelledby="supportTitle supportDesc">
  <title id="supportTitle">Рабочее место технической поддержки</title>
  <desc id="supportDesc">Сотрудник технической поддержки за монитором и рядом информационные панели.</desc>
  <defs>
    <linearGradient id="supportBg" x1="46" y1="36" x2="474" y2="330" gradientUnits="userSpaceOnUse">
      <stop stop-color="#f7fbff"/>
      <stop offset="1" stop-color="#e2f3f6"/>
    </linearGradient>
    <filter id="supportShadow" x="-20%" y="-20%" width="140%" height="150%">
      <feDropShadow dx="0" dy="18" stdDeviation="14" flood-color="#162236" flood-opacity=".13"/>
    </filter>
  </defs>
  <rect x="24" y="28" width="472" height="304" rx="18" fill="url(#supportBg)"/>
  <path d="M72 92h132M72 122h92M320 84h92M320 114h124M68 276h384" stroke="#0f5da8" stroke-opacity=".12" stroke-width="8" stroke-linecap="round"/>

  <g filter="url(#supportShadow)">
    <rect x="156" y="106" width="208" height="132" rx="12" fill="#123e62"/>
    <rect x="174" y="124" width="172" height="86" rx="8" fill="#eaf4ff"/>
    <path d="M195 151h66M195 174h118M195 197h86" stroke="#0f5da8" stroke-width="8" stroke-linecap="round"/>
    <circle cx="322" cy="151" r="10" fill="#168c8b"/>
    <path d="M238 238h44v34h-44z" fill="#d9e5f2"/>
    <path d="M208 272h104" stroke="#123e62" stroke-width="10" stroke-linecap="round"/>
  </g>

  <g filter="url(#supportShadow)">
    <circle cx="112" cy="210" r="34" fill="#0f5da8"/>
    <path d="M92 204a20 20 0 0 1 40 0v10M91 214h10v24H91a8 8 0 0 1-8-8v-8a8 8 0 0 1 8-8zM133 214h-10v24h10a8 8 0 0 0 8-8v-8a8 8 0 0 0-8-8z" fill="none" stroke="#fff" stroke-width="6" stroke-linecap="round" stroke-linejoin="round"/>
  </g>

  <g filter="url(#supportShadow)">
    <rect x="382" y="176" width="70" height="96" rx="12" fill="#fff"/>
    <path d="M400 202h34M400 224h26M400 246h38" stroke="#168c8b" stroke-width="7" stroke-linecap="round"/>
  </g>
</svg>
